<?xml version="1.0" encoding="UTF-8" standalone="no"?>
<!DOCTYPE svg PUBLIC "-//W3C//DTD SVG 1.1//EN" "http://www.w3.org/Graphics/SVG/1.1/DTD/svg11.dtd">
<svg width="100%" height="100%" viewBox="0 0 500 137" version="1.1" xmlns="http://www.w3.org/2000/svg" xmlns:xlink="http://www.w3.org/1999/xlink" xml:space="preserve" xmlns:serif="http://www.serif.com/" style="fill-rule:evenodd;clip-rule:evenodd;stroke-linejoin:round;stroke-miterlimit:2;">
    <g id="Artboard1" transform="matrix(1,0,0,0.133789,0,0)">
        <rect x="0" y="0" width="500" height="1024" style="fill:none;"/>
        <g transform="matrix(0.102871,0,0,0.768906,133.021,-707.785)">
            <path d="M-393.204,1262L-393.204,1067.5L-365.311,1067.5L-365.311,1090.12L-363.803,1090.12C-360.788,1082.58 -356.516,1076.17 -350.987,1070.89C-345.459,1065.62 -337.292,1062.98 -326.487,1062.98C-315.179,1062.98 -306.761,1065.81 -301.232,1071.46C-295.704,1077.12 -292.312,1084.46 -291.055,1093.51L-289.924,1093.51C-286.406,1084.72 -281.381,1077.43 -274.847,1071.65C-268.314,1065.87 -259.267,1062.98 -247.708,1062.98C-231.877,1062.98 -221.26,1068.51 -215.857,1079.57C-210.454,1090.62 -207.753,1106.45 -207.753,1127.06L-207.753,1262L-235.646,1262L-235.646,1131.96C-235.646,1115.37 -237.342,1103.88 -240.735,1097.47C-244.127,1091.06 -250.347,1087.86 -259.393,1087.86C-267.434,1087.86 -273.968,1090.43 -278.993,1095.58C-284.019,1100.74 -286.532,1108.59 -286.532,1119.14L-286.532,1262L-314.425,1262L-314.425,1131.96C-314.425,1115.37 -316.121,1103.88 -319.514,1097.47C-322.906,1091.06 -329,1087.86 -337.795,1087.86C-345.836,1087.86 -352.432,1090.43 -357.584,1095.58C-362.735,1100.74 -365.311,1108.59 -365.311,1119.14L-365.311,1262L-393.204,1262Z" style="fill:rgb(35,31,32);fill-rule:nonzero;"/>
            <path d="M-0.817,1262C-12.628,1262 -21.046,1258.99 -26.072,1252.95C-31.097,1246.92 -34.239,1239.38 -35.495,1230.34L-37.38,1230.34C-41.652,1241.65 -48.499,1250.5 -57.922,1256.91C-67.346,1263.32 -79.973,1266.52 -95.804,1266.52C-116.159,1266.52 -132.367,1261.25 -144.428,1250.69C-156.49,1240.14 -162.521,1225.69 -162.521,1207.35C-162.521,1189.25 -155.925,1175.31 -142.732,1165.51C-129.54,1155.7 -108.243,1150.81 -78.842,1150.81L-37.38,1150.81L-37.38,1131.7C-37.38,1117.46 -41.4,1106.78 -49.441,1099.67C-57.483,1092.55 -68.916,1088.99 -83.742,1088.99C-96.809,1088.99 -107.489,1091.56 -115.782,1096.71C-124.074,1101.87 -130.733,1108.84 -135.759,1117.63L-156.113,1102.56C-153.6,1097.53 -150.208,1092.61 -145.936,1087.8C-141.664,1082.98 -136.387,1078.72 -130.105,1075.03C-123.823,1071.33 -116.661,1068.4 -108.62,1066.23C-100.579,1064.06 -91.658,1062.98 -81.858,1062.98C-58.99,1062.98 -40.835,1068.77 -27.391,1080.36C-13.947,1091.94 -7.225,1108.06 -7.225,1128.71L-7.225,1235.99L19.914,1235.99L19.914,1262L-0.817,1262ZM-90.527,1241.27C-82.737,1241.27 -75.638,1240.33 -69.23,1238.44C-62.823,1236.56 -57.231,1234.04 -52.457,1230.9C-47.682,1227.76 -43.976,1223.99 -41.337,1219.6C-38.699,1215.2 -37.38,1210.49 -37.38,1205.46L-37.38,1173.42L-78.842,1173.42C-96.935,1173.42 -110.128,1175.93 -118.42,1180.96C-126.713,1185.99 -130.859,1193.27 -130.859,1202.82L-130.859,1210.74C-130.859,1220.79 -127.278,1228.39 -120.116,1233.54C-112.955,1238.69 -103.092,1241.27 -90.527,1241.27Z" style="fill:rgb(35,31,32);fill-rule:nonzero;"/>
            <path d="M198.957,1230.34L197.449,1230.34C184.885,1254.46 164.907,1266.52 137.517,1266.52C113.645,1266.52 94.987,1257.6 81.543,1239.76C68.099,1221.92 61.377,1196.92 61.377,1164.75C61.377,1132.59 68.099,1107.58 81.543,1089.74C94.987,1071.9 113.645,1062.98 137.517,1062.98C164.907,1062.98 184.885,1075.04 197.449,1099.16L198.957,1099.16L198.957,983.07L229.112,983.07L229.112,1262L198.957,1262L198.957,1230.34ZM149.202,1239.76C155.987,1239.76 162.395,1238.88 168.426,1237.12C174.456,1235.36 179.733,1232.79 184.257,1229.39C188.78,1226 192.361,1221.86 194.999,1216.96C197.638,1212.06 198.957,1206.34 198.957,1199.81L198.957,1129.7C198.957,1123.16 197.638,1117.45 194.999,1112.55C192.361,1107.65 188.78,1103.5 184.257,1100.11C179.733,1096.71 174.456,1094.14 168.426,1092.38C162.395,1090.62 155.987,1089.74 149.202,1089.74C131.612,1089.74 117.979,1095.08 108.305,1105.76C98.63,1116.44 93.793,1130.58 93.793,1148.17L93.793,1181.34C93.793,1198.93 98.63,1213.06 108.305,1223.74C117.979,1234.42 131.612,1239.76 149.202,1239.76Z" style="fill:rgb(35,31,32);fill-rule:nonzero;"/>
            <path d="M381.392,1266.52C367.32,1266.52 354.693,1264.14 343.511,1259.36C332.328,1254.59 322.779,1247.74 314.864,1238.82C306.948,1229.9 300.854,1219.22 296.583,1206.78C292.311,1194.34 290.175,1180.46 290.175,1165.13C290.175,1149.55 292.373,1135.48 296.771,1122.91C301.169,1110.35 307.262,1099.61 315.052,1090.68C322.842,1081.76 332.203,1074.92 343.134,1070.14C354.065,1065.37 366.189,1062.98 379.508,1062.98C392.575,1062.98 404.448,1065.37 415.128,1070.14C425.808,1074.92 434.917,1081.51 442.455,1089.93C449.994,1098.35 455.774,1108.34 459.794,1119.9C463.815,1131.46 465.825,1144.15 465.825,1157.97L465.825,1172.29L321.837,1172.29L321.837,1181.34C321.837,1189.88 323.219,1197.8 325.983,1205.08C328.747,1212.37 332.705,1218.65 337.857,1223.93C343.008,1229.21 349.29,1233.29 356.703,1236.18C364.116,1239.07 372.346,1240.52 381.392,1240.52C394.459,1240.52 405.767,1237.5 415.316,1231.47C424.865,1225.44 432.153,1217.14 437.178,1206.59L459.417,1221.67C453.638,1234.74 444.026,1245.48 430.582,1253.9C417.138,1262.31 400.742,1266.52 381.392,1266.52ZM379.508,1087.86C371.215,1087.86 363.551,1089.37 356.515,1092.38C349.479,1095.4 343.385,1099.54 338.234,1104.82C333.082,1110.1 329.062,1116.32 326.172,1123.48C323.282,1130.64 321.837,1138.49 321.837,1147.04L321.837,1149.67L433.409,1149.67L433.409,1145.53C433.409,1136.98 432.09,1129.19 429.451,1122.16C426.813,1115.12 423.169,1109.03 418.52,1103.88C413.871,1098.73 408.217,1094.77 401.558,1092C394.899,1089.24 387.549,1087.86 379.508,1087.86Z" style="fill:rgb(35,31,32);fill-rule:nonzero;"/>
            <path d="M728.547,1067.5L755.309,1067.5L777.548,1235.62L780.941,1235.62L814.111,1067.5L847.281,1067.5L880.451,1235.62L883.843,1235.62L906.082,1067.5L932.091,1067.5L902.313,1262L863.112,1262L832.204,1099.16L829.188,1099.16L797.526,1262L758.325,1262L728.547,1067.5Z" style="fill:rgb(35,31,32);fill-rule:nonzero;"/>
            <path d="M1068.54,1024.53C1059.75,1024.53 1053.59,1022.71 1050.07,1019.07C1046.55,1015.42 1044.79,1010.84 1044.79,1005.31L1044.79,999.278C1044.79,993.75 1046.55,989.164 1050.07,985.52C1053.59,981.876 1059.75,980.054 1068.54,980.054C1077.34,980.054 1083.49,981.876 1087.01,985.52C1090.53,989.164 1092.29,993.75 1092.29,999.278L1092.29,1005.31C1092.29,1010.84 1090.53,1015.42 1087.01,1019.07C1083.49,1022.71 1077.34,1024.53 1068.54,1024.53ZM983.354,1235.99L1053.46,1235.99L1053.46,1093.51L983.354,1093.51L983.354,1067.5L1083.62,1067.5L1083.62,1235.99L1149.2,1235.99L1149.2,1262L983.354,1262L983.354,1235.99Z" style="fill:rgb(35,31,32);fill-rule:nonzero;"/>
            <path d="M1292.06,1262C1277.24,1262 1266.37,1257.86 1259.46,1249.59C1252.55,1241.31 1249.09,1230.66 1249.09,1217.62L1249.09,1093.51L1184.26,1093.51L1184.26,1067.5L1232.51,1067.5C1239.04,1067.5 1243.63,1066.18 1246.26,1063.55C1248.9,1060.91 1250.22,1056.32 1250.22,1049.79L1250.22,998.901L1279.25,998.901L1279.25,1067.5L1367.83,1067.5L1367.83,1093.51L1279.25,1093.51L1279.25,1235.99L1367.83,1235.99L1367.83,1262L1292.06,1262Z" style="fill:rgb(35,31,32);fill-rule:nonzero;"/>
            <path d="M1432.66,983.07L1462.81,983.07L1462.81,1099.16L1464.32,1099.16C1466.33,1094.39 1468.84,1089.81 1471.86,1085.41C1474.87,1081.01 1478.58,1077.18 1482.98,1073.91C1487.38,1070.64 1492.59,1068.01 1498.62,1066C1504.65,1063.99 1511.69,1062.98 1519.73,1062.98C1540.08,1062.98 1556.42,1069.45 1568.73,1082.39C1581.04,1095.33 1587.2,1113.61 1587.2,1137.24L1587.2,1262L1557.05,1262L1557.05,1142.51C1557.05,1124.67 1553.15,1111.41 1545.36,1102.75C1537.57,1094.08 1526.14,1089.74 1511.06,1089.74C1505.03,1089.74 1499.12,1090.5 1493.34,1092C1487.56,1093.51 1482.41,1095.77 1477.89,1098.79C1473.37,1101.8 1469.72,1105.7 1466.96,1110.47C1464.19,1115.25 1462.81,1120.78 1462.81,1127.06L1462.81,1262L1432.66,1262L1432.66,983.07Z" style="fill:rgb(35,31,32);fill-rule:nonzero;"/>
            <path d="M2336.16,983.07L2366.32,983.07L2366.32,1099.16L2367.83,1099.16C2380.39,1075.04 2400.37,1062.98 2427.76,1062.98C2451.63,1062.98 2470.29,1071.9 2483.73,1089.74C2497.18,1107.58 2503.9,1132.59 2503.9,1164.75C2503.9,1196.92 2497.18,1221.92 2483.73,1239.76C2470.29,1257.6 2451.63,1266.52 2427.76,1266.52C2400.37,1266.52 2380.39,1254.46 2367.83,1230.34L2366.32,1230.34L2366.32,1262L2336.16,1262L2336.16,983.07ZM2416.07,1239.76C2433.66,1239.76 2447.3,1234.42 2456.97,1223.74C2466.65,1213.06 2471.48,1198.93 2471.48,1181.34L2471.48,1148.17C2471.48,1130.58 2466.65,1116.44 2456.97,1105.76C2447.3,1095.08 2433.66,1089.74 2416.07,1089.74C2409.29,1089.74 2402.88,1090.62 2396.85,1092.38C2390.82,1094.14 2385.54,1096.71 2381.02,1100.11C2376.5,1103.5 2372.91,1107.65 2370.28,1112.55C2367.64,1117.45 2366.32,1123.16 2366.32,1129.7L2366.32,1199.81C2366.32,1206.34 2367.64,1212.06 2370.28,1216.96C2372.91,1221.86 2376.5,1226 2381.02,1229.39C2385.54,1232.79 2390.82,1235.36 2396.85,1237.12C2402.88,1238.88 2409.29,1239.76 2416.07,1239.76Z" style="fill:rgb(35,31,32);fill-rule:nonzero;"/>
            <path d="M2702.54,1067.5L2732.7,1067.5L2636.2,1304.59C2633.94,1310.12 2631.43,1314.96 2628.66,1319.11C2625.9,1323.25 2622.63,1326.64 2618.86,1329.28C2615.09,1331.92 2610.57,1333.93 2605.29,1335.31C2600.02,1336.69 2593.74,1337.39 2586.45,1337.39L2557.8,1337.39L2557.8,1311.38L2603.03,1311.38L2624.89,1258.23L2546.49,1067.5L2577.4,1067.5L2610.19,1148.92L2639.22,1222.8L2640.73,1222.8L2669.75,1148.92L2702.54,1067.5Z" style="fill:rgb(35,31,32);fill-rule:nonzero;"/>
        </g>
        <g transform="matrix(0.338392,0,0,2.5293,-134.8,-2227.52)">
            <path d="M398.354,1262L398.354,1067.5L426.247,1067.5L426.247,1090.12L427.755,1090.12C430.771,1082.58 435.042,1076.17 440.571,1070.89C446.099,1065.62 454.266,1062.98 465.071,1062.98C476.379,1062.98 484.798,1065.81 490.326,1071.46C495.854,1077.12 499.247,1084.46 500.503,1093.51L501.634,1093.51C505.152,1084.72 510.178,1077.43 516.711,1071.65C523.245,1065.87 532.291,1062.98 543.85,1062.98C559.681,1062.98 570.298,1068.51 575.701,1079.57C581.104,1090.62 583.805,1106.45 583.805,1127.06L583.805,1262L555.912,1262L555.912,1131.96C555.912,1115.37 554.216,1103.88 550.824,1097.47C547.431,1091.06 541.212,1087.86 532.165,1087.86C524.124,1087.86 517.591,1090.43 512.565,1095.58C507.539,1100.74 505.026,1108.59 505.026,1119.14L505.026,1262L477.133,1262L477.133,1131.96C477.133,1115.37 475.437,1103.88 472.045,1097.47C468.652,1091.06 462.559,1087.86 453.763,1087.86C445.722,1087.86 439.126,1090.43 433.974,1095.58C428.823,1100.74 426.247,1108.59 426.247,1119.14L426.247,1262L398.354,1262Z" style="fill:rgb(35,31,32);fill-rule:nonzero;"/>
            <path d="M790.741,1262C778.931,1262 770.512,1258.99 765.487,1252.95C760.461,1246.92 757.32,1239.38 756.063,1230.34L754.179,1230.34C749.907,1241.65 743.059,1250.5 733.636,1256.91C724.213,1263.32 711.585,1266.52 695.754,1266.52C675.4,1266.52 659.192,1261.25 647.13,1250.69C635.068,1240.14 629.037,1225.69 629.037,1207.35C629.037,1189.25 635.633,1175.31 648.826,1165.51C662.019,1155.7 683.315,1150.81 712.716,1150.81L754.179,1150.81L754.179,1131.7C754.179,1117.46 750.158,1106.78 742.117,1099.67C734.076,1092.55 722.642,1088.99 707.816,1088.99C694.749,1088.99 684.069,1091.56 675.777,1096.71C667.484,1101.87 660.825,1108.84 655.799,1117.63L635.445,1102.56C637.958,1097.53 641.35,1092.61 645.622,1087.8C649.894,1082.98 655.171,1078.72 661.453,1075.03C667.735,1071.33 674.897,1068.4 682.938,1066.23C690.98,1064.06 699.9,1062.98 709.701,1062.98C732.568,1062.98 750.723,1068.77 764.167,1080.36C777.611,1091.94 784.333,1108.06 784.333,1128.71L784.333,1235.99L811.472,1235.99L811.472,1262L790.741,1262ZM701.031,1241.27C708.821,1241.27 715.92,1240.33 722.328,1238.44C728.736,1236.56 734.327,1234.04 739.101,1230.9C743.876,1227.76 747.582,1223.99 750.221,1219.6C752.859,1215.2 754.179,1210.49 754.179,1205.46L754.179,1173.42L712.716,1173.42C694.623,1173.42 681.431,1175.93 673.138,1180.96C664.846,1185.99 660.699,1193.27 660.699,1202.82L660.699,1210.74C660.699,1220.79 664.28,1228.39 671.442,1233.54C678.604,1238.69 688.467,1241.27 701.031,1241.27Z" style="fill:rgb(35,31,32);fill-rule:nonzero;"/>
            <path d="M859.343,1235.99L916.26,1235.99L916.26,1093.51L859.343,1093.51L859.343,1067.5L946.414,1067.5L946.414,1116.5L948.299,1116.5C952.32,1101.17 959.921,1089.18 971.103,1080.51C982.286,1071.84 996.546,1067.5 1013.88,1067.5L1041.02,1067.5L1041.02,1097.66L1004.46,1097.66C987.123,1097.66 973.114,1102.67 962.434,1112.69C951.754,1122.72 946.414,1135.88 946.414,1152.16L946.414,1235.99L1021.8,1235.99L1021.8,1262L859.343,1262L859.343,1235.99Z" style="fill:rgb(35,31,32);fill-rule:nonzero;"/>
            <path d="M1176.34,1266.52C1162.27,1266.52 1149.77,1264.07 1138.84,1259.17C1127.91,1254.27 1118.67,1247.42 1111.13,1238.63C1103.6,1229.84 1097.88,1219.15 1093.98,1206.59C1090.09,1194.03 1088.14,1180.08 1088.14,1164.75C1088.14,1149.42 1090.15,1135.48 1094.17,1122.91C1098.19,1110.35 1103.97,1099.61 1111.51,1090.68C1119.05,1081.76 1128.22,1074.92 1139.03,1070.14C1149.83,1065.37 1162.14,1062.98 1175.97,1062.98C1194.81,1062.98 1210.14,1067.13 1221.95,1075.42C1233.76,1083.71 1242.43,1094.52 1247.96,1107.84L1223.84,1120.65C1220.32,1110.6 1214.48,1102.81 1206.31,1097.28C1198.14,1091.75 1188.03,1088.99 1175.97,1088.99C1167.17,1088.99 1159.32,1090.43 1152.41,1093.32C1145.5,1096.21 1139.65,1100.3 1134.88,1105.57C1130.11,1110.85 1126.53,1117.13 1124.14,1124.42C1121.75,1131.71 1120.56,1139.62 1120.56,1148.17L1120.56,1181.34C1120.56,1189.88 1121.75,1197.8 1124.14,1205.08C1126.53,1212.37 1130.11,1218.65 1134.88,1223.93C1139.65,1229.21 1145.56,1233.29 1152.6,1236.18C1159.63,1239.07 1167.67,1240.52 1176.72,1240.52C1189.79,1240.52 1200.59,1237.5 1209.14,1231.47C1217.68,1225.44 1224.46,1217.14 1229.49,1206.59L1250.98,1221.29C1245.2,1234.36 1236.21,1245.16 1224.03,1253.71C1211.84,1262.25 1195.94,1266.52 1176.34,1266.52Z" style="fill:rgb(35,31,32);fill-rule:nonzero;"/>
            <path d="M1441.7,1230.34L1440.2,1230.34C1438.19,1235.11 1435.67,1239.7 1432.66,1244.1C1429.64,1248.49 1425.93,1252.33 1421.54,1255.59C1417.14,1258.86 1411.93,1261.5 1405.89,1263.51C1399.86,1265.52 1392.83,1266.52 1384.79,1266.52C1364.43,1266.52 1348.1,1260.05 1335.79,1247.11C1323.47,1234.17 1317.32,1215.89 1317.32,1192.27L1317.32,1067.5L1347.47,1067.5L1347.47,1186.99C1347.47,1204.83 1351.37,1218.09 1359.15,1226.76C1366.94,1235.43 1378.38,1239.76 1393.46,1239.76C1399.49,1239.76 1405.39,1239.01 1411.17,1237.5C1416.95,1235.99 1422.1,1233.73 1426.63,1230.71C1431.15,1227.7 1434.79,1223.87 1437.56,1219.22C1440.32,1214.57 1441.7,1208.98 1441.7,1202.44L1441.7,1067.5L1471.86,1067.5L1471.86,1262L1441.7,1262L1441.7,1230.34Z" style="fill:rgb(35,31,32);fill-rule:nonzero;"/>
            <path d="M1624.14,1266.52C1603.79,1266.52 1586.26,1263.07 1571.56,1256.16C1556.86,1249.25 1544.36,1240.01 1534.05,1228.45L1554.41,1210.74C1563.7,1220.54 1573.88,1228.08 1584.94,1233.35C1596,1238.63 1609.31,1241.27 1624.89,1241.27C1639.97,1241.27 1652.35,1238.57 1662.02,1233.16C1671.69,1227.76 1676.53,1219.28 1676.53,1207.72C1676.53,1202.7 1675.59,1198.49 1673.71,1195.09C1671.82,1191.7 1669.25,1189 1665.98,1186.99C1662.71,1184.98 1659.07,1183.41 1655.05,1182.28C1651.03,1181.15 1646.76,1180.21 1642.23,1179.45L1611.7,1174.93C1604.91,1173.92 1597.57,1172.54 1589.65,1170.78C1581.73,1169.02 1574.51,1166.2 1567.98,1162.3C1561.44,1158.41 1555.98,1153.19 1551.58,1146.66C1547.18,1140.12 1544.98,1131.58 1544.98,1121.03C1544.98,1111.23 1546.93,1102.75 1550.83,1095.58C1554.72,1088.42 1560.19,1082.39 1567.22,1077.49C1574.26,1072.59 1582.55,1068.95 1592.1,1066.56C1601.65,1064.17 1612.08,1062.98 1623.38,1062.98C1640.98,1062.98 1656.24,1065.74 1669.18,1071.27C1682.12,1076.8 1693.24,1084.46 1702.54,1094.27L1682.94,1112.74C1680.68,1109.97 1677.85,1107.14 1674.46,1104.25C1671.07,1101.36 1666.92,1098.73 1662.02,1096.34C1657.12,1093.95 1651.4,1092 1644.87,1090.5C1638.34,1088.99 1630.8,1088.23 1622.25,1088.23C1606.93,1088.23 1595.18,1090.87 1587.01,1096.15C1578.84,1101.43 1574.76,1109.09 1574.76,1119.14C1574.76,1124.17 1575.7,1128.38 1577.59,1131.77C1579.47,1135.16 1582.05,1137.86 1585.32,1139.87C1588.58,1141.88 1592.29,1143.45 1596.43,1144.59C1600.58,1145.72 1604.79,1146.66 1609.06,1147.41L1639.59,1151.94C1646.63,1152.94 1654.04,1154.32 1661.83,1156.08C1669.62,1157.84 1676.78,1160.67 1683.32,1164.56C1689.85,1168.46 1695.32,1173.67 1699.71,1180.21C1704.11,1186.74 1706.31,1195.28 1706.31,1205.84C1706.31,1225.19 1698.83,1240.14 1683.88,1250.69C1668.93,1261.25 1649.02,1266.52 1624.14,1266.52Z" style="fill:rgb(35,31,32);fill-rule:nonzero;"/>
            <path d="M1848.04,1265.39C1837.73,1265.39 1830.51,1263.26 1826.36,1258.99C1822.22,1254.71 1820.14,1249.31 1820.14,1242.78L1820.14,1235.99C1820.14,1229.46 1822.22,1224.06 1826.36,1219.78C1830.51,1215.51 1837.73,1213.38 1848.04,1213.38C1858.34,1213.38 1865.56,1215.51 1869.71,1219.78C1873.86,1224.06 1875.93,1229.46 1875.93,1235.99L1875.93,1242.78C1875.93,1249.31 1873.86,1254.71 1869.71,1258.99C1865.56,1263.26 1858.34,1265.39 1848.04,1265.39Z" style="fill:rgb(35,31,32);fill-rule:nonzero;"/>
        </g>
        <g transform="matrix(0.833333,0,0,6.22871,52.3333,7.47173)">
            <path d="M338,16.577C341.789,10 349.368,10 353.158,13.288C356.948,16.577 356.948,23.154 353.158,29.731C350.505,34.664 343.684,39.596 338,42.885C332.316,39.596 325.495,34.664 322.842,29.731C319.053,23.154 319.053,16.577 322.842,13.288C326.632,10 334.211,10 338,16.577Z" style="fill:rgb(193,18,31);"/>
        </g>
    </g>
</svg>
