<?xml version="1.0" encoding="UTF-8" standalone="no"?>
<!DOCTYPE svg PUBLIC "-//W3C//DTD SVG 1.1//EN" "http://www.w3.org/Graphics/SVG/1.1/DTD/svg11.dtd">
<svg width="100%" height="100%" viewBox="0 0 500 137" version="1.1" xmlns="http://www.w3.org/2000/svg" xmlns:xlink="http://www.w3.org/1999/xlink" xml:space="preserve" xmlns:serif="http://www.serif.com/" style="fill-rule:evenodd;clip-rule:evenodd;stroke-linejoin:round;stroke-miterlimit:2;">
    <g id="Artboard1" transform="matrix(1,0,0,0.133789,0,0)">
        <rect x="0" y="0" width="500" height="1024" style="fill:none;"/>
        <g transform="matrix(0.326902,0,0,2.44341,-124.937,-2143.7)">
            <path d="M407.212,1262L407.212,1055.25L441.89,1055.25L441.89,1099.35C445.031,1090.81 449.931,1083.02 456.59,1075.98C463.25,1068.95 471.134,1063.29 480.243,1059.02C489.352,1054.75 499.121,1052.61 509.549,1052.61C528.647,1052.61 544.918,1057.55 558.362,1067.41C571.806,1077.27 580.538,1090.68 584.559,1107.65C587.574,1097.09 592.6,1087.7 599.636,1079.47C606.672,1071.24 615.248,1064.71 625.362,1059.87C635.476,1055.03 646.439,1052.61 658.249,1052.61C682.75,1052.61 702.35,1060.21 717.051,1075.42C731.751,1090.62 739.101,1112.17 739.101,1140.06L739.101,1262L704.8,1262L704.8,1147.98C704.8,1127.25 699.618,1111.2 689.252,1099.83C678.886,1088.45 665.348,1082.77 648.638,1082.77C631.424,1082.77 617.446,1089.33 606.704,1102.46C595.961,1115.59 590.59,1133.15 590.59,1155.14L590.59,1262L556.289,1262L556.289,1149.49C556.289,1128.5 551.138,1112.14 540.835,1100.39C530.532,1088.64 516.9,1082.77 499.938,1082.77C488.63,1082.77 478.641,1085.85 469.972,1092C461.302,1098.16 454.454,1106.67 449.429,1117.54C444.403,1128.41 441.89,1140.94 441.89,1155.14L441.89,1262L407.212,1262Z" style="fill:rgb(35,31,32);fill-rule:nonzero;"/>
            <path d="M877.436,1264.64C859.468,1264.64 843.135,1260.18 828.434,1251.26C813.734,1242.34 802.049,1229.9 793.38,1213.94C784.71,1197.98 780.375,1179.45 780.375,1158.34C780.375,1137.24 784.71,1118.73 793.38,1102.84C802.049,1086.95 813.734,1074.6 828.434,1065.81C843.135,1057.01 859.468,1052.61 877.436,1052.61C895.654,1052.61 911.674,1056.92 925.494,1065.52C939.315,1074.13 949.241,1085.85 955.272,1100.67L955.272,1055.25L990.138,1055.25L990.138,1262L975.627,1262C969.47,1262 964.538,1260.15 960.832,1256.44C957.125,1252.73 955.272,1247.8 955.272,1241.65L955.272,1216.01C949.116,1230.84 939.064,1242.65 925.118,1251.45C911.171,1260.24 895.277,1264.64 877.436,1264.64ZM885.54,1234.48C898.104,1234.48 909.663,1231.47 920.217,1225.44C930.772,1219.41 939.253,1210.67 945.66,1199.24C952.068,1187.81 955.272,1174.17 955.272,1158.34C955.272,1142.39 952.068,1128.79 945.66,1117.54C939.253,1106.3 930.772,1097.69 920.217,1091.72C909.663,1085.75 898.104,1082.77 885.54,1082.77C873.101,1082.77 861.573,1085.75 850.956,1091.72C840.339,1097.69 831.827,1106.3 825.419,1117.54C819.011,1128.79 815.807,1142.39 815.807,1158.34C815.807,1174.17 819.011,1187.81 825.419,1199.24C831.827,1210.67 840.339,1219.41 850.956,1225.44C861.573,1231.47 873.101,1234.48 885.54,1234.48Z" style="fill:rgb(35,31,32);fill-rule:nonzero;"/>
            <path d="M1048.37,1262L1048.37,1055.25L1083.05,1055.25L1083.05,1262L1048.37,1262ZM1070.8,1156.27L1083.05,1101.05C1087.83,1085.85 1096.15,1073.97 1108.02,1065.43C1119.9,1056.89 1133.94,1052.61 1150.15,1052.61L1150.15,1088.8C1148.26,1088.3 1146.38,1087.98 1144.49,1087.86C1142.61,1087.73 1140.72,1087.67 1138.84,1087.67C1128.03,1087.67 1118.45,1090.46 1110.1,1096.06C1101.74,1101.65 1095.15,1109.56 1090.31,1119.8C1085.47,1130.04 1083.05,1142.2 1083.05,1156.27L1070.8,1156.27Z" style="fill:rgb(35,31,32);fill-rule:nonzero;"/>
            <path d="M1272.46,1264.64C1252.86,1264.64 1235.46,1260.3 1220.26,1251.63C1205.05,1242.96 1193.15,1230.65 1184.54,1214.69C1175.93,1198.74 1171.63,1180.02 1171.63,1158.53C1171.63,1136.8 1175.93,1118.04 1184.54,1102.28C1193.15,1086.51 1205.05,1074.29 1220.26,1065.62C1235.46,1056.95 1252.86,1052.61 1272.46,1052.61C1284.02,1052.61 1294.7,1053.87 1304.5,1056.38C1314.3,1058.9 1323.06,1062.76 1330.79,1067.97C1338.52,1073.19 1345.24,1079.75 1350.96,1087.67C1356.67,1095.58 1361.23,1104.88 1364.62,1115.56L1332.02,1126.12C1327.24,1111.79 1319.86,1100.86 1309.87,1093.32C1299.88,1085.78 1287.41,1082.02 1272.46,1082.02C1260.02,1082.02 1248.84,1084.87 1238.91,1090.59C1228.99,1096.31 1221.2,1104.85 1215.54,1116.22C1209.89,1127.59 1207.06,1141.7 1207.06,1158.53C1207.06,1175.24 1209.89,1189.32 1215.54,1200.75C1221.2,1212.18 1228.99,1220.82 1238.91,1226.66C1248.84,1232.51 1260.02,1235.43 1272.46,1235.43C1289.8,1235.43 1303.71,1230.84 1314.21,1221.67C1324.7,1212.5 1331.89,1200.5 1335.79,1185.67L1367.83,1193.4C1364.18,1207.09 1358.18,1219.31 1349.83,1230.06C1341.47,1240.8 1330.88,1249.25 1318.07,1255.4C1305.25,1261.56 1290.05,1264.64 1272.46,1264.64Z" style="fill:rgb(33,35,31);fill-rule:nonzero;"/>
            <path d="M1558.36,1241.65L1558.36,1055.25L1593.04,1055.25L1593.04,1262L1578.72,1262C1572.69,1262 1567.79,1260.15 1564.02,1256.44C1560.25,1252.73 1558.36,1247.8 1558.36,1241.65ZM1489.2,1264.64C1472.74,1264.64 1458.41,1261.09 1446.23,1253.99C1434.04,1246.89 1424.62,1236.81 1417.96,1223.74C1411.3,1210.67 1407.97,1195.09 1407.97,1177L1407.97,1055.25L1442.27,1055.25L1442.27,1168.71C1442.27,1189.69 1447.61,1205.9 1458.29,1217.33C1468.97,1228.77 1482.79,1234.48 1499.75,1234.48C1511.06,1234.48 1521.14,1231.44 1530,1225.34C1538.86,1219.25 1545.8,1210.86 1550.83,1200.18C1555.85,1189.5 1558.36,1177.13 1558.36,1163.06L1566.09,1174.93C1565.71,1195.28 1561.98,1212.09 1554.88,1225.34C1547.78,1238.6 1538.48,1248.46 1526.99,1254.93C1515.49,1261.4 1502.89,1264.64 1489.2,1264.64Z" style="fill:rgb(33,35,31);fill-rule:nonzero;"/>
            <path d="M1722.33,1264.64C1707.25,1264.64 1693.97,1262.09 1682.47,1257.01C1670.97,1251.92 1661.61,1245.01 1654.39,1236.27C1647.16,1227.54 1642.29,1217.9 1639.78,1207.35L1672.39,1200.18C1674.9,1210.49 1680.43,1218.9 1688.97,1225.44C1697.52,1231.97 1708.45,1235.24 1721.76,1235.24C1735.46,1235.24 1745.89,1232.41 1753.05,1226.76C1760.21,1221.1 1763.79,1214.07 1763.79,1205.65C1763.79,1197.98 1760.87,1192.02 1755.03,1187.74C1749.19,1183.47 1741.62,1179.99 1732.32,1177.28C1723.02,1174.58 1713.16,1171.85 1702.73,1169.09C1692.3,1166.32 1682.44,1162.74 1673.14,1158.34C1663.84,1153.95 1656.27,1147.95 1650.43,1140.35C1644.59,1132.74 1641.67,1122.66 1641.67,1110.1C1641.67,1099.42 1644.81,1089.74 1651.09,1081.07C1657.37,1072.4 1666.23,1065.49 1677.66,1060.34C1689.1,1055.19 1702.48,1052.61 1717.81,1052.61C1732.26,1052.61 1744.63,1054.94 1754.93,1059.59C1765.24,1064.24 1773.59,1070.55 1780,1078.53C1786.41,1086.51 1790.74,1095.71 1793.01,1106.14L1760.97,1114.81C1758.58,1105.38 1753.9,1097.56 1746.92,1091.34C1739.95,1085.12 1729.87,1082.02 1716.68,1082.02C1703.99,1082.02 1694.15,1084.62 1687.18,1089.84C1680.21,1095.05 1676.72,1101.68 1676.72,1109.72C1676.72,1117.76 1679.64,1124.07 1685.49,1128.66C1691.33,1133.25 1698.83,1136.95 1708.01,1139.78C1717.18,1142.61 1726.95,1145.4 1737.31,1148.17C1747.68,1150.93 1757.45,1154.42 1766.62,1158.63C1775.79,1162.84 1783.3,1168.65 1789.14,1176.06C1794.98,1183.47 1797.9,1193.27 1797.9,1205.46C1797.9,1216.39 1794.8,1226.35 1788.58,1235.33C1782.36,1244.32 1773.59,1251.45 1762.29,1256.72C1750.98,1262 1737.66,1264.64 1722.33,1264.64Z" style="fill:rgb(33,35,31);fill-rule:nonzero;"/>
            <path d="M1860.29,1264.64C1852.75,1264.64 1846.4,1262.22 1841.25,1257.38C1836.1,1252.55 1833.53,1246.67 1833.53,1239.76C1833.53,1232.85 1836.1,1227.04 1841.25,1222.33C1846.4,1217.62 1852.75,1215.26 1860.29,1215.26C1867.69,1215.26 1873.94,1217.62 1879.03,1222.33C1884.13,1227.04 1886.67,1232.85 1886.67,1239.76C1886.67,1246.67 1884.13,1252.55 1879.03,1257.38C1873.94,1262.22 1867.69,1264.64 1860.29,1264.64Z" style="fill:rgb(33,35,31);fill-rule:nonzero;"/>
        </g>
        <g transform="matrix(0.102871,0,0,0.768906,129.444,-669.526)">
            <path d="M-308.394,1262L-308.394,1055.25L-273.716,1055.25L-273.716,1099.35C-270.575,1090.81 -265.675,1083.02 -259.016,1075.98C-252.357,1068.95 -244.473,1063.29 -235.363,1059.02C-226.254,1054.75 -216.485,1052.61 -206.057,1052.61C-186.959,1052.61 -170.688,1057.55 -157.244,1067.41C-143.8,1077.27 -135.068,1090.68 -131.047,1107.65C-128.032,1097.09 -123.006,1087.7 -115.97,1079.47C-108.934,1071.24 -100.359,1064.71 -90.244,1059.87C-80.13,1055.03 -69.168,1052.61 -57.357,1052.61C-32.856,1052.61 -13.256,1060.21 1.444,1075.42C16.145,1090.62 23.495,1112.17 23.495,1140.06L23.495,1262L-10.806,1262L-10.806,1147.98C-10.806,1127.25 -15.989,1111.2 -26.354,1099.83C-36.72,1088.45 -50.258,1082.77 -66.969,1082.77C-84.182,1082.77 -98.16,1089.33 -108.903,1102.46C-119.645,1115.59 -125.016,1133.15 -125.016,1155.14L-125.016,1262L-159.317,1262L-159.317,1149.49C-159.317,1128.5 -164.469,1112.14 -174.772,1100.39C-185.074,1088.64 -198.707,1082.77 -215.669,1082.77C-226.977,1082.77 -236.965,1085.85 -245.635,1092C-254.304,1098.16 -261.152,1106.67 -266.178,1117.54C-271.203,1128.41 -273.716,1140.94 -273.716,1155.14L-273.716,1262L-308.394,1262Z" style="fill:rgb(35,31,32);fill-rule:nonzero;"/>
            <path d="M161.829,1264.64C143.862,1264.64 127.528,1260.18 112.828,1251.26C98.128,1242.34 86.443,1229.9 77.773,1213.94C69.104,1197.98 64.769,1179.45 64.769,1158.34C64.769,1137.24 69.104,1118.73 77.773,1102.84C86.443,1086.95 98.128,1074.6 112.828,1065.81C127.528,1057.01 143.862,1052.61 161.829,1052.61C180.048,1052.61 196.067,1056.92 209.888,1065.52C223.709,1074.13 233.635,1085.85 239.666,1100.67L239.666,1055.25L274.532,1055.25L274.532,1262L260.02,1262C253.864,1262 248.932,1260.15 245.226,1256.44C241.519,1252.73 239.666,1247.8 239.666,1241.65L239.666,1216.01C233.509,1230.84 223.458,1242.65 209.511,1251.45C195.565,1260.24 179.671,1264.64 161.829,1264.64ZM169.933,1234.48C182.498,1234.48 194.057,1231.47 204.611,1225.44C215.165,1219.41 223.646,1210.67 230.054,1199.24C236.462,1187.81 239.666,1174.17 239.666,1158.34C239.666,1142.39 236.462,1128.79 230.054,1117.54C223.646,1106.3 215.165,1097.69 204.611,1091.72C194.057,1085.75 182.498,1082.77 169.933,1082.77C157.494,1082.77 145.967,1085.75 135.35,1091.72C124.733,1097.69 116.22,1106.3 109.813,1117.54C103.405,1128.79 100.201,1142.39 100.201,1158.34C100.201,1174.17 103.405,1187.81 109.813,1199.24C116.22,1210.67 124.733,1219.41 135.35,1225.44C145.967,1231.47 157.494,1234.48 169.933,1234.48Z" style="fill:rgb(35,31,32);fill-rule:nonzero;"/>
            <path d="M416.636,1264.64C398.668,1264.64 382.335,1260.18 367.634,1251.26C352.934,1242.34 341.249,1229.9 332.58,1213.94C323.91,1197.98 319.575,1179.45 319.575,1158.34C319.575,1137.24 323.91,1118.73 332.58,1102.84C341.249,1086.95 352.934,1074.6 367.634,1065.81C382.335,1057.01 398.668,1052.61 416.636,1052.61C434.854,1052.61 450.874,1056.92 464.694,1065.52C478.515,1074.13 488.441,1085.85 494.472,1100.67L494.472,983.07L529.338,983.07L529.338,1262L514.827,1262C508.67,1262 503.738,1260.15 500.032,1256.44C496.325,1252.73 494.472,1247.8 494.472,1241.65L494.472,1216.01C488.441,1230.84 478.421,1242.65 464.412,1251.45C450.402,1260.24 434.477,1264.64 416.636,1264.64ZM424.74,1234.48C437.304,1234.48 448.863,1231.47 459.417,1225.44C469.972,1219.41 478.453,1210.67 484.86,1199.24C491.268,1187.81 494.472,1174.17 494.472,1158.34C494.472,1142.39 491.268,1128.79 484.86,1117.54C478.453,1106.3 469.972,1097.69 459.417,1091.72C448.863,1085.75 437.304,1082.77 424.74,1082.77C412.301,1082.77 400.773,1085.75 390.156,1091.72C379.539,1097.69 371.027,1106.3 364.619,1117.54C358.211,1128.79 355.007,1142.39 355.007,1158.34C355.007,1174.17 358.211,1187.81 364.619,1199.24C371.027,1210.67 379.539,1219.41 390.156,1225.44C400.773,1231.47 412.301,1234.48 424.74,1234.48Z" style="fill:rgb(35,31,32);fill-rule:nonzero;"/>
            <path d="M684.258,1264.64C668.175,1264.64 653.412,1262.16 639.968,1257.19C626.524,1252.23 614.902,1245.13 605.102,1235.9C595.302,1226.66 587.732,1215.67 582.392,1202.92C577.052,1190.16 574.382,1175.87 574.382,1160.04C574.382,1144.33 577.334,1129.95 583.24,1116.88C589.145,1103.81 597.218,1092.44 607.458,1082.77C617.698,1073.09 629.414,1065.65 642.607,1060.43C655.799,1055.22 669.557,1052.61 683.881,1052.61C696.571,1052.61 708.193,1054.28 718.747,1057.61C729.301,1060.94 738.41,1065.62 746.075,1071.65C753.739,1077.68 759.676,1084.62 763.885,1092.48C768.094,1100.33 770.198,1108.84 770.198,1118.01C770.198,1131.2 766.523,1142.13 759.173,1150.81C751.823,1159.47 742.117,1166.26 730.055,1171.16C717.993,1176.06 704.738,1179.42 690.289,1181.24C675.84,1183.06 661.39,1183.79 646.941,1183.41C642.795,1183.28 638.366,1183.13 633.654,1182.94C628.943,1182.75 624.577,1182.47 620.556,1182.09C616.535,1181.71 613.332,1181.4 610.944,1181.15C612.452,1190.95 616.473,1199.96 623.006,1208.19C629.54,1216.42 638.115,1222.96 648.732,1227.79C659.349,1232.63 671.191,1235.05 684.258,1235.05C694.309,1235.05 703.89,1233.26 712.999,1229.68C722.108,1226.1 730.275,1221.54 737.499,1216.01C744.724,1210.49 750.598,1204.83 755.121,1199.05L780.752,1218.09C774.093,1227.01 765.864,1234.99 756.063,1242.02C746.263,1249.06 735.332,1254.59 723.27,1258.61C711.208,1262.63 698.204,1264.64 684.258,1264.64ZM647.507,1154.76C657.558,1154.76 667.767,1154.2 678.133,1153.07C688.498,1151.94 698.047,1150.02 706.779,1147.32C715.512,1144.62 722.579,1140.91 727.982,1136.2C733.385,1131.49 736.086,1125.55 736.086,1118.39C736.086,1111.48 733.887,1105.29 729.49,1099.83C725.092,1094.36 719.093,1090.06 711.491,1086.91C703.89,1083.77 695.314,1082.2 685.765,1082.2C671.442,1082.2 658.563,1085.56 647.13,1092.29C635.696,1099.01 626.618,1107.74 619.896,1118.48C613.174,1129.23 609.499,1140.63 608.871,1152.69C613.269,1153.32 618.828,1153.82 625.55,1154.2C632.272,1154.57 639.591,1154.76 647.507,1154.76Z" style="fill:rgb(35,31,32);fill-rule:nonzero;"/>
            <path d="M898.544,1055.25L933.787,1055.25L987.123,1250.5L974.684,1250.5L1031.98,1055.25L1067.6,1055.25L1123.38,1250.5L1111.13,1250.5L1164.09,1055.25L1198.2,1055.25L1133.75,1262L1097.94,1262L1041.21,1074.1L1055.91,1074.1L999.185,1262L963.188,1262L898.544,1055.25Z" style="fill:rgb(35,31,32);fill-rule:nonzero;"/>
            <path d="M1233.64,1262L1233.64,1055.25L1268.32,1055.25L1268.32,1262L1233.64,1262ZM1251.16,1022.08C1243.88,1022.08 1237.6,1019.67 1232.32,1014.84C1227.04,1010 1224.4,1004 1224.4,996.84C1224.4,989.67 1226.95,983.698 1232.04,978.924C1237.12,974.149 1243.5,971.762 1251.16,971.762C1258.49,971.762 1264.78,974.149 1270.04,978.924C1275.3,983.698 1277.93,989.67 1277.93,996.84C1277.93,1004 1275.3,1010 1270.04,1014.84C1264.78,1019.67 1258.49,1022.08 1251.16,1022.08Z" style="fill:rgb(35,31,32);fill-rule:nonzero;"/>
            <path d="M1394.4,1264.64C1380.08,1264.64 1368.08,1259.8 1358.4,1250.13C1348.73,1240.45 1343.89,1227.76 1343.89,1212.06L1343.89,1083.9L1308.84,1083.9L1308.84,1055.25L1426.06,1055.25L1426.06,1083.9L1378.76,1083.9L1378.76,1213.38C1378.76,1219.91 1380.58,1224.93 1384.22,1228.45C1387.87,1231.97 1392.26,1233.73 1397.41,1233.73C1401.06,1233.73 1404.45,1233.04 1407.59,1231.66C1410.73,1230.28 1413.68,1228.45 1416.45,1226.19L1433.6,1249.94C1428.2,1254.84 1422.23,1258.51 1415.69,1260.96C1409.16,1263.41 1402.06,1264.64 1394.4,1264.64ZM1327.12,1070.33L1327.12,1055.25C1332.52,1055.25 1336.66,1053.78 1339.56,1050.82C1342.44,1047.87 1343.89,1043.69 1343.89,1038.29L1343.89,1003.61L1378.94,1003.61L1378.94,1032.26C1378.94,1035.78 1378.22,1039.14 1376.78,1042.34C1375.33,1045.55 1373.26,1048.28 1370.56,1050.54C1367.86,1052.8 1364.62,1054.37 1360.85,1055.25L1327.12,1070.33Z" style="fill:rgb(35,31,32);fill-rule:nonzero;"/>
            <path d="M1474.12,1262L1474.12,983.07L1508.8,983.07L1508.8,1099.35C1511.94,1090.81 1516.93,1083.02 1523.78,1075.98C1530.63,1068.95 1538.83,1063.29 1548.38,1059.02C1557.92,1054.75 1568.16,1052.61 1579.1,1052.61C1595.43,1052.61 1609.6,1056.23 1621.6,1063.45C1633.59,1070.67 1642.86,1080.85 1649.39,1093.98C1655.93,1107.11 1659.19,1122.54 1659.19,1140.25L1659.19,1262L1624.89,1262L1624.89,1149.11C1624.89,1128.25 1619.62,1111.98 1609.06,1100.3C1598.51,1088.61 1584.69,1082.77 1567.6,1082.77C1556.54,1082.77 1546.59,1085.82 1537.73,1091.91C1528.87,1098 1521.83,1106.45 1516.62,1117.26C1511.4,1128.06 1508.8,1140.57 1508.8,1154.76L1508.8,1262L1474.12,1262Z" style="fill:rgb(35,31,32);fill-rule:nonzero;"/>
            <path d="M2331.64,1264.64C2314.05,1264.64 2298.22,1260.24 2284.15,1251.45C2270.08,1242.65 2259.96,1230.84 2253.8,1216.01L2253.8,1241.65C2253.8,1247.8 2251.98,1252.73 2248.34,1256.44C2244.7,1260.15 2239.73,1262 2233.45,1262L2218.94,1262L2218.94,983.07L2253.8,983.07L2253.8,1100.67C2259.96,1085.85 2269.98,1074.13 2283.87,1065.52C2297.75,1056.92 2313.67,1052.61 2331.64,1052.61C2349.61,1052.61 2365.94,1057.01 2380.64,1065.81C2395.34,1074.6 2407.03,1086.95 2415.7,1102.84C2424.37,1118.73 2428.7,1137.24 2428.7,1158.34C2428.7,1179.45 2424.37,1197.98 2415.7,1213.94C2407.03,1229.9 2395.34,1242.34 2380.64,1251.26C2365.94,1260.18 2349.61,1264.64 2331.64,1264.64ZM2323.54,1234.48C2336.1,1234.48 2347.66,1231.47 2358.22,1225.44C2368.77,1219.41 2377.25,1210.67 2383.66,1199.24C2390.07,1187.81 2393.27,1174.17 2393.27,1158.34C2393.27,1142.39 2390.07,1128.79 2383.66,1117.54C2377.25,1106.3 2368.77,1097.69 2358.22,1091.72C2347.66,1085.75 2336.1,1082.77 2323.54,1082.77C2311.1,1082.77 2299.57,1085.75 2288.95,1091.72C2278.34,1097.69 2269.82,1106.3 2263.42,1117.54C2257.01,1128.79 2253.8,1142.39 2253.8,1158.34C2253.8,1174.17 2257.01,1187.81 2263.42,1199.24C2269.82,1210.67 2278.34,1219.41 2288.95,1225.44C2299.57,1231.47 2311.1,1234.48 2323.54,1234.48Z" style="fill:rgb(35,31,32);fill-rule:nonzero;"/>
            <path d="M2617.55,1265.39L2617.55,1055.25L2652.22,1055.25L2652.22,1265.39C2652.22,1279.46 2650.09,1292.41 2645.81,1304.22C2641.54,1316.03 2635.23,1326.3 2626.87,1335.03C2618.52,1343.76 2608.37,1350.55 2596.44,1355.38C2584.5,1360.22 2570.8,1362.64 2555.35,1362.64C2539.77,1362.64 2525.57,1360.03 2512.76,1354.82C2499.94,1349.61 2488.92,1341.82 2479.68,1331.45C2470.45,1321.08 2463.25,1308.3 2458.1,1293.1L2489.95,1281.22C2495.86,1297.81 2504.56,1310.5 2516.05,1319.29C2527.55,1328.09 2540.53,1332.49 2554.97,1332.49C2574.32,1332.49 2589.59,1326.55 2600.77,1314.68C2611.95,1302.8 2617.55,1286.38 2617.55,1265.39ZM2627.35,1164C2626.97,1183.22 2624.36,1199.12 2619.52,1211.68C2614.69,1224.24 2608.4,1234.08 2600.68,1241.17C2592.95,1248.27 2584.56,1253.27 2575.52,1256.16C2566.47,1259.05 2557.49,1260.49 2548.57,1260.49C2532.11,1260.49 2517.75,1256.94 2505.5,1249.84C2493.25,1242.75 2483.8,1232.66 2477.14,1219.6C2470.48,1206.53 2467.15,1190.95 2467.15,1172.86L2467.15,1055.25L2501.64,1055.25L2501.64,1164.56C2501.64,1185.55 2506.98,1201.75 2517.66,1213.19C2528.34,1224.62 2542.16,1230.34 2559.12,1230.34C2570.43,1230.34 2580.51,1227.29 2589.37,1221.2C2598.23,1215.1 2605.14,1206.72 2610.1,1196.04C2615.06,1185.36 2617.55,1172.98 2617.55,1158.91L2627.35,1164Z" style="fill:rgb(35,31,32);fill-rule:nonzero;"/>
        </g>
        <g transform="matrix(0.833333,0,0,6.22871,45.7563,45.7309)">
            <path d="M338,16.577C341.789,10 349.368,10 353.158,13.288C356.948,16.577 356.948,23.154 353.158,29.731C350.505,34.664 343.684,39.596 338,42.885C332.316,39.596 325.495,34.664 322.842,29.731C319.053,23.154 319.053,16.577 322.842,13.288C326.632,10 334.211,10 338,16.577Z" style="fill:rgb(193,18,31);"/>
        </g>
    </g>
</svg>
